<?xml version="1.0" encoding="UTF-8"?>
<svg xmlns="http://www.w3.org/2000/svg">
    <symbol id="ict-image-compare" viewBox="0 0 24 24">
        <path d="M10 3H5c-1.1 0-2 .9-2 2v14c0 1.1.9 2 2 2h5v2h2V1h-2zm0 15H5l5-6zm9-15h-5v2h5v13l-5-6v9h5c1.1 0 2-.9 2-2V5c0-1.1-.9-2-2-2"/>
    </symbol>
    <symbol id="ict-unfold-vertical" viewBox="0 0 24 24" fill="none" stroke="currentColor" stroke-width="2" stroke-linecap="round" stroke-linejoin="round">
        <path d="M12 22v-6" />
        <path d="M12 8V2" />
        <path d="M4 12H2" />
        <path d="M10 12H8" />
        <path d="M16 12h-2" />
        <path d="M22 12h-2" />
        <path d="m15 19-3 3-3-3" />
        <path d="m15 5-3-3-3 3" />
    </symbol>
    <symbol id="ict-unfold-horizontal" viewBox="0 0 24 24" fill="none" stroke="currentColor" stroke-width="2" stroke-linecap="round" stroke-linejoin="round">
        <path d="M16 12h6" />
        <path d="M8 12H2" />
        <path d="M12 2v2" />
        <path d="M12 8v2" />
        <path d="M12 14v2" />
        <path d="M12 20v2" />
        <path d="m19 15 3-3-3-3" />
        <path d="m5 9-3 3 3 3" />
    </symbol>
    <symbol id="ict-position-horizontal" viewBox="0 0 24 24" fill="none" stroke="currentColor" stroke-width="2" stroke-linecap="round" stroke-linejoin="round">
        <circle cx="12" cy="12" r="3" />
        <line x1="3" x2="9" y1="12" y2="12" />
        <line x1="15" x2="21" y1="12" y2="12" />
    </symbol>
    <symbol id="ict-position-vertical" viewBox="0 0 24 24" fill="none" stroke="currentColor" stroke-width="2" stroke-linecap="round" stroke-linejoin="round">
        <path d="M12 3v6"/>
        <circle cx="12" cy="12" r="3"/>
        <path d="M12 15v6"/>
    </symbol>
    <symbol id="ict-style" viewBox="0 0 24 24" fill="none" stroke="currentColor" stroke-width="2" stroke-linecap="round" stroke-linejoin="round">
        <path d="M8.3 10a.7.7 0 0 1-.626-1.079L11.4 3a.7.7 0 0 1 1.198-.043L16.3 8.9a.7.7 0 0 1-.572 1.1Z" />
        <rect x="3" y="14" width="7" height="7" rx="1" />
        <circle cx="17.5" cy="17.5" r="3.5" />
    </symbol>
    <symbol id="ict-color" viewBox="0 0 24 24" fill="none" stroke="currentColor" stroke-width="2" stroke-linecap="round" stroke-linejoin="round">
        <path d="M12 22a1 1 0 0 1 0-20 10 9 0 0 1 10 9 5 5 0 0 1-5 5h-2.25a1.75 1.75 0 0 0-1.4 2.8l.3.4a1.75 1.75 0 0 1-1.4 2.8z" />
        <circle cx="13.5" cy="6.5" r=".5" fill="currentColor" />
        <circle cx="17.5" cy="10.5" r=".5" fill="currentColor" />
        <circle cx="6.5" cy="12.5" r=".5" fill="currentColor" />
        <circle cx="8.5" cy="7.5" r=".5" fill="currentColor" />
    </symbol>
    <symbol id="ict-labels" viewBox="0 0 24 24" fill="none" stroke="currentColor" stroke-width="2" stroke-linecap="round" stroke-linejoin="round">
        <path d="M12.586 2.586A2 2 0 0 0 11.172 2H4a2 2 0 0 0-2 2v7.172a2 2 0 0 0 .586 1.414l8.704 8.704a2.426 2.426 0 0 0 3.42 0l6.58-6.58a2.426 2.426 0 0 0 0-3.42z" />
        <circle cx="7.5" cy="7.5" r=".5" fill="currentColor" />
    </symbol>
    <symbol id="ict-caption" viewBox="0 0 24 24" fill="none" stroke="currentColor" stroke-width="2" stroke-linecap="round" stroke-linejoin="round">
        <path d="M12 4v16" />
        <path d="M4 7V5a1 1 0 0 1 1-1h14a1 1 0 0 1 1 1v2" />
        <path d="M9 20h6" />
    </symbol>
    <symbol id="ict-arrow" viewBox="0 0 15 15">
        <path stroke-linecap="round" d="M4.5 1.9L10 7.65l-5.5 5.4" />
    </symbol>
    <symbol id="ict-orientation-dot" viewBox="0 0 24 24" fill="none" stroke="currentColor" stroke-width="2" stroke-linecap="round" stroke-linejoin="round">
        <path d="M21 12a9 9 0 0 0-9-9 9.75 9.75 0 0 0-6.74 2.74L3 8"/>
        <path d="M3 3v5h5"/>
        <path d="M3 12a9 9 0 0 0 9 9 9.75 9.75 0 0 0 6.74-2.74L21 16"/>
        <path d="M16 16h5v5"/>
        <circle cx="12" cy="12" r="1"/>
    </symbol>
</svg>
